<?xml version="1.0" encoding="UTF-8" standalone="no"?>
<svg
   xmlns:dc="http://purl.org/dc/elements/1.1/"
   xmlns:cc="http://creativecommons.org/ns#"
   xmlns:rdf="http://www.w3.org/1999/02/22-rdf-syntax-ns#"
   xmlns:svg="http://www.w3.org/2000/svg"
   xmlns="http://www.w3.org/2000/svg"
   xmlns:xlink="http://www.w3.org/1999/xlink"
   xmlns:sodipodi="http://sodipodi.sourceforge.net/DTD/sodipodi-0.dtd"
   xmlns:inkscape="http://www.inkscape.org/namespaces/inkscape"
   sodipodi:docname="drive-removable-media.svg"
   inkscape:version="1.0 (4035a4fb49, 2020-05-01)"
   id="svg8"
   version="1.1"
   viewBox="0 0 4.2333333 4.2333333"
   height="16"
   width="16">
  <defs
     id="defs2">
    <linearGradient
       inkscape:collect="always"
       id="linearGradient851">
      <stop
         style="stop-color:#9a9c9f;stop-opacity:1"
         offset="0"
         id="stop847" />
      <stop
         style="stop-color:#717272;stop-opacity:1"
         offset="1"
         id="stop849" />
    </linearGradient>
    <clipPath
       clipPathUnits="userSpaceOnUse"
       id="clipPath859">
      <path
         id="path861"
         style="opacity:1;fill:#e1e2e3;fill-opacity:1;stroke-width:0.227717"
         d="m 2.9104167,1.0583333 c -0.4397376,0 -0.7937501,0.3540125 -0.7937501,0.79375 v 8.9958327 c 0,0.439738 0.3540125,0.79375 0.7937501,0.79375 h 6.8791666 c 0.4397377,0 0.7937497,-0.354012 0.7937497,-0.79375 V 4.2333333 l -3.1749997,-3.175 z" />
    </clipPath>
    <linearGradient
       inkscape:collect="always"
       xlink:href="#linearGradient851"
       id="linearGradient853"
       x1="16"
       y1="46"
       x2="32"
       y2="2"
       gradientUnits="userSpaceOnUse"
       gradientTransform="matrix(0.24999999,0,0,0.33333332,2.0000001,0)" />
    <clipPath
       id="clipPath859-7"
       clipPathUnits="userSpaceOnUse">
      <path
         d="m 2.9104167,1.0583333 c -0.4397376,0 -0.7937501,0.3540125 -0.7937501,0.79375 v 8.9958327 c 0,0.439738 0.3540125,0.79375 0.7937501,0.79375 h 6.8791666 c 0.4397377,0 0.7937497,-0.354012 0.7937497,-0.79375 V 4.2333333 l -3.1749997,-3.175 z"
         style="opacity:1;fill:#e1e2e3;fill-opacity:1;stroke-width:0.227717"
         id="path861-5" />
    </clipPath>
  </defs>
  <sodipodi:namedview
     inkscape:snap-bbox-midpoints="true"
     inkscape:bbox-nodes="true"
     inkscape:snap-bbox-edge-midpoints="true"
     inkscape:snap-bbox="true"
     inkscape:snap-grids="true"
     inkscape:window-maximized="0"
     inkscape:window-y="32"
     inkscape:window-x="1121"
     inkscape:window-height="1003"
     inkscape:window-width="1439"
     units="px"
     showgrid="true"
     inkscape:document-rotation="0"
     inkscape:current-layer="layer1"
     inkscape:document-units="mm"
     inkscape:cy="33.715894"
     inkscape:cx="-26.586768"
     inkscape:zoom="7.1975789"
     inkscape:pageshadow="2"
     inkscape:pageopacity="0.0"
     borderopacity="1.0"
     bordercolor="#666666"
     pagecolor="#ffffff"
     id="base"
     inkscape:snap-intersection-paths="true"
     inkscape:object-paths="true"
     inkscape:snap-smooth-nodes="true">
    <inkscape:grid
       empspacing="4"
       id="grid833"
       type="xygrid" />
  </sodipodi:namedview>
  <metadata
     id="metadata5">
    <rdf:RDF>
      <cc:Work
         rdf:about="">
        <dc:format>image/svg+xml</dc:format>
        <dc:type
           rdf:resource="http://purl.org/dc/dcmitype/StillImage" />
        <dc:title />
      </cc:Work>
    </rdf:RDF>
  </metadata>
  <g
     id="layer1"
     inkscape:groupmode="layer"
     inkscape:label="Layer 1">
    <path
       id="path842"
       style="opacity:1;fill:url(#linearGradient853);fill-opacity:1;stroke-width:0.248452"
       d="M 4 1 C 3.446 1 3 1.4460003 3 2 L 3 5 L 3 14 C 3 14.554001 3.4460007 15 4 15 L 12 15 C 12.553999 15 13 14.554001 13 14 L 13 5 L 13 2 C 13 1.4460003 12.554 1 12 1 L 9 1 L 7 1 L 4 1 z "
       transform="scale(0.26458333)" />
    <path
       d="m 0.79374999,0.61736137 v -0.0881947 c 0,-0.14657934 0.11800417,-0.26458334 0.26458331,-0.26458334 H 3.175 c 0.146579,0 0.2645833,0.118004 0.2645833,0.26458334 v 0.0881947 C 3.4395833,0.4707817 3.321579,0.35277803 3.175,0.35277803 H 1.0583333 c -0.14657914,0 -0.26458331,0.11800367 -0.26458331,0.26458334 z"
       style="opacity:0.13;fill:#fcfeff;fill-opacity:1;stroke-width:0.0759057"
       id="path845"
       sodipodi:nodetypes="csssscssc" />
    <path
       id="path880"
       style="opacity:0.0837249;fill:#000000;fill-opacity:1;stroke-width:0.0759057"
       d="m 0.79375,3.6159726 v 0.088194 c 0,0.1465794 0.11800416,0.2645834 0.2645833,0.2645834 H 3.175 c 0.146579,0 0.2645833,-0.118004 0.2645833,-0.2645834 v -0.088194 c 0,0.1465793 -0.1180044,0.2645833 -0.2645833,0.2645833 H 1.0583333 c -0.14657914,0 -0.2645833,-0.118004 -0.2645833,-0.2645833 z"
       sodipodi:nodetypes="csssscssc" />
    <rect
       y="2.1166666"
       x="1.3229166"
       height="0.2645835"
       width="1.5875"
       id="rect844"
       style="opacity:0.445;fill:#000000;fill-opacity:1;stroke-width:1.32292;stroke-linecap:round" />
    <path
       sodipodi:nodetypes="cccc"
       id="path852"
       d="m 1.3229167,1.8520834 h 1.5875 L 2.1166668,0.79375 Z"
       style="opacity:0.445;fill:#000000;fill-opacity:1;stroke:none;stroke-width:0.0826822px;stroke-linecap:butt;stroke-linejoin:miter;stroke-opacity:1" />
  </g>
</svg>
