<?xml version="1.0" encoding="UTF-8" standalone="no"?>
<svg
   xmlns:dc="http://purl.org/dc/elements/1.1/"
   xmlns:cc="http://creativecommons.org/ns#"
   xmlns:rdf="http://www.w3.org/1999/02/22-rdf-syntax-ns#"
   xmlns:svg="http://www.w3.org/2000/svg"
   xmlns="http://www.w3.org/2000/svg"
   xmlns:xlink="http://www.w3.org/1999/xlink"
   xmlns:sodipodi="http://sodipodi.sourceforge.net/DTD/sodipodi-0.dtd"
   xmlns:inkscape="http://www.inkscape.org/namespaces/inkscape"
   width="48"
   height="48"
   viewBox="0 0 12.7 12.7"
   version="1.1"
   id="svg8"
   inkscape:version="1.0 (4035a4fb49, 2020-05-01)"
   sodipodi:docname="application-x-java.svg">
  <defs
     id="defs2">
    <linearGradient
       inkscape:collect="always"
       id="linearGradient846">
      <stop
         style="stop-color:#a9512b;stop-opacity:1"
         offset="0"
         id="stop842" />
      <stop
         style="stop-color:#c86a41;stop-opacity:1"
         offset="1"
         id="stop844" />
    </linearGradient>
    <clipPath
       id="clipPath859"
       clipPathUnits="userSpaceOnUse">
      <path
         d="m 2.9104167,1.0583333 c -0.4397376,0 -0.7937501,0.3540125 -0.7937501,0.79375 v 8.9958327 c 0,0.439738 0.3540125,0.79375 0.7937501,0.79375 h 6.8791666 c 0.4397377,0 0.7937497,-0.354012 0.7937497,-0.79375 V 4.2333333 l -3.1749997,-3.175 z"
         style="opacity:1;fill:#e1e2e3;fill-opacity:1;stroke-width:0.227717"
         id="path861" />
    </clipPath>
    <linearGradient
       inkscape:collect="always"
       xlink:href="#linearGradient846"
       id="linearGradient848"
       x1="6.3499999"
       y1="11.641666"
       x2="6.3499999"
       y2="1.0583333"
       gradientUnits="userSpaceOnUse" />
  </defs>
  <sodipodi:namedview
     inkscape:bbox-nodes="true"
     inkscape:snap-bbox="true"
     inkscape:snap-midpoints="false"
     inkscape:snap-smooth-nodes="true"
     inkscape:object-paths="true"
     inkscape:snap-intersection-paths="true"
     id="base"
     pagecolor="#ffffff"
     bordercolor="#666666"
     borderopacity="1.0"
     inkscape:pageopacity="0.0"
     inkscape:pageshadow="2"
     inkscape:zoom="10.18496"
     inkscape:cx="18.074103"
     inkscape:cy="38.608695"
     inkscape:document-units="mm"
     inkscape:current-layer="layer1"
     inkscape:document-rotation="0"
     showgrid="true"
     units="px"
     inkscape:window-width="1442"
     inkscape:window-height="1003"
     inkscape:window-x="1118"
     inkscape:window-y="32"
     inkscape:window-maximized="0"
     inkscape:snap-grids="true">
    <inkscape:grid
       type="xygrid"
       id="grid833"
       empspacing="4" />
  </sodipodi:namedview>
  <metadata
     id="metadata5">
    <rdf:RDF>
      <cc:Work
         rdf:about="">
        <dc:format>image/svg+xml</dc:format>
        <dc:type
           rdf:resource="http://purl.org/dc/dcmitype/StillImage" />
        <dc:title />
      </cc:Work>
    </rdf:RDF>
  </metadata>
  <g
     inkscape:label="Layer 1"
     inkscape:groupmode="layer"
     id="layer1">
    <rect
       ry="0.79375005"
       y="1.0583333"
       x="1.0583333"
       height="10.583333"
       width="10.583333"
       id="rect844"
       style="opacity:1;fill:url(#linearGradient848);fill-opacity:1;stroke:none;stroke-width:4.23333;stroke-linecap:round" />
    <path
       transform="scale(0.26458333)"
       d="M 7 4 C 5.338 4 4 5.338 4 7 L 4 8 C 4 6.338 5.338 5 7 5 L 20 5 L 28 5 L 41 5 C 42.661998 5 44 6.338 44 8 L 44 7 C 44 5.338 42.661998 4 41 4 L 28 4 L 20 4 L 7 4 z "
       style="opacity:0.22805809;fill:#fcfeff;fill-opacity:1;stroke-width:0.860663"
       id="path874" />
    <path
       sodipodi:nodetypes="csssscssc"
       transform="scale(0.26458333)"
       d="m 4.0000001,40.000001 v 1 c 0,1.662002 1.338,3 3,3 H 41.000001 c 1.661999,0 3,-1.337998 3,-3 v -1 c 0,1.662002 -1.338003,3 -3,3 H 7.0000001 c -1.662,0 -3,-1.337998 -3,-3 z"
       style="opacity:0.0837249;fill:#000000;fill-opacity:1;stroke-width:0.860663"
       id="path880" />
    <path
       id="rect850"
       style="fill:#000000;fill-opacity:1;stroke-width:4.23333;stroke-linecap:round;opacity:0.3758337"
       d="m 3.175,4.2333333 c -0.2931584,0 -0.5291667,0.236008 -0.5291667,0.5291666 v 1.8520833 c 0,0.2931584 0.2360083,0.5291667 0.5291667,0.5291667 h 1.0583333 v 0.79375 c 0,0.5863167 0.4720166,1.0583333 1.0583333,1.0583333 h 3.175 c 0.5863166,0 1.0583333,-0.4720166 1.0583333,-1.0583333 V 5.2916666 4.2333333 h -3.96875 -1.3229166 z m 0.2645833,0.79375 h 0.79375 v 0.2645833 1.0583333 h -0.79375 z" />
    <path
       transform="scale(0.26458333)"
       d="M 13 19 L 13 20 L 16 20 L 16 19 L 13 19 z M 10 25 L 10 26 C 10 27.108 10.892 28 12 28 L 16 28 L 16 27 L 12 27 C 10.892 27 10 26.108 10 25 z M 16 30 L 16 31 C 16 33.216 17.784 35 20 35 L 32 35 C 34.216 35 36 33.216 36 31 L 36 30 C 36 32.216 34.216 34 32 34 L 20 34 C 17.784 34 16 32.216 16 30 z "
       style="opacity:0.06669741;fill:#ffffff;fill-opacity:1;stroke-width:16;stroke-linecap:round"
       id="path878" />
    <path
       d="m 3.175,4.2333333 c -0.2931584,0 -0.5291667,0.2360081 -0.5291667,0.5291667 v 0.2645833 c 0,-0.2931586 0.2360083,-0.5291666 0.5291667,-0.5291666 h 1.0583333 1.3229166 3.96875 V 4.2333333 H 5.5562499 4.2333333 Z M 3.4395833,6.35 v 0.2645833 h 0.79375 V 6.35 Z"
       style="opacity:0.0963822;fill:#000000;fill-opacity:1;stroke-width:4.23333;stroke-linecap:round"
       id="path893" />
  </g>
</svg>
