<?xml version="1.0" encoding="UTF-8" standalone="no"?>
<svg
   xmlns:dc="http://purl.org/dc/elements/1.1/"
   xmlns:cc="http://creativecommons.org/ns#"
   xmlns:rdf="http://www.w3.org/1999/02/22-rdf-syntax-ns#"
   xmlns:svg="http://www.w3.org/2000/svg"
   xmlns="http://www.w3.org/2000/svg"
   xmlns:xlink="http://www.w3.org/1999/xlink"
   xmlns:sodipodi="http://sodipodi.sourceforge.net/DTD/sodipodi-0.dtd"
   xmlns:inkscape="http://www.inkscape.org/namespaces/inkscape"
   sodipodi:docname="emblem-symbolic-link.svg"
   inkscape:version="1.0 (4035a4fb49, 2020-05-01)"
   id="svg8"
   version="1.1"
   viewBox="0 0 12.7 12.7"
   height="48"
   width="48">
  <defs
     id="defs2">
    <linearGradient
       inkscape:collect="always"
       id="linearGradient863">
      <stop
         style="stop-color:#1155ff;stop-opacity:1;"
         offset="0"
         id="stop859" />
      <stop
         style="stop-color:#1166ff;stop-opacity:1"
         offset="1"
         id="stop861" />
    </linearGradient>
    <clipPath
       clipPathUnits="userSpaceOnUse"
       id="clipPath859">
      <path
         id="path861"
         style="opacity:1;fill:#e1e2e3;fill-opacity:1;stroke-width:0.227717"
         d="m 2.9104167,1.0583333 c -0.4397376,0 -0.7937501,0.3540125 -0.7937501,0.79375 v 8.9958327 c 0,0.439738 0.3540125,0.79375 0.7937501,0.79375 h 6.8791666 c 0.4397377,0 0.7937497,-0.354012 0.7937497,-0.79375 V 4.2333333 l -3.1749997,-3.175 z" />
    </clipPath>
    <linearGradient
       gradientTransform="matrix(0.83333336,0,0,0.83333336,1.0583331,1.0583331)"
       inkscape:collect="always"
       xlink:href="#linearGradient863"
       id="linearGradient865"
       x1="6.3499999"
       y1="12.7"
       x2="6.3499999"
       y2="0"
       gradientUnits="userSpaceOnUse" />
    <filter
       height="1.1108059"
       y="-0.055402926"
       width="1.1108059"
       x="-0.055402926"
       id="filter1273"
       style="color-interpolation-filters:sRGB"
       inkscape:collect="always">
      <feGaussianBlur
         id="feGaussianBlur1275"
         stdDeviation="0.24431153"
         inkscape:collect="always" />
    </filter>
  </defs>
  <sodipodi:namedview
     inkscape:snap-grids="true"
     inkscape:window-maximized="0"
     inkscape:window-y="32"
     inkscape:window-x="1122"
     inkscape:window-height="1003"
     inkscape:window-width="1438"
     units="px"
     showgrid="true"
     inkscape:document-rotation="0"
     inkscape:current-layer="layer1"
     inkscape:document-units="mm"
     inkscape:cy="44.484801"
     inkscape:cx="20.863916"
     inkscape:zoom="15.283289"
     inkscape:pageshadow="2"
     inkscape:pageopacity="0.0"
     borderopacity="1.0"
     bordercolor="#666666"
     pagecolor="#ffffff"
     id="base"
     inkscape:snap-intersection-paths="true"
     inkscape:object-paths="true"
     inkscape:snap-smooth-nodes="true">
    <inkscape:grid
       empspacing="4"
       id="grid833"
       type="xygrid" />
  </sodipodi:namedview>
  <metadata
     id="metadata5">
    <rdf:RDF>
      <cc:Work
         rdf:about="">
        <dc:format>image/svg+xml</dc:format>
        <dc:type
           rdf:resource="http://purl.org/dc/dcmitype/StillImage" />
        <dc:title />
      </cc:Work>
    </rdf:RDF>
  </metadata>
  <g
     id="layer1"
     inkscape:groupmode="layer"
     inkscape:label="Layer 1">
    <circle
       r="5.291667"
       cy="6.614583"
       cx="6.3499999"
       id="circle857"
       style="opacity:0.35416215;mix-blend-mode:normal;fill:#000000;fill-opacity:1;stroke-width:3.52777;stroke-linecap:round;filter:url(#filter1273)" />
    <circle
       style="opacity:1;fill:url(#linearGradient865);fill-opacity:1;stroke-width:3.52777;stroke-linecap:round"
       id="path842"
       cx="6.3499999"
       cy="6.3499999"
       r="5.291667" />
    <path
       sodipodi:nodetypes="ccccccc"
       id="path846"
       d="M 4.4979166,3.9687496 C 7.4083333,3.439583 9.5250003,4.4979156 5.8208333,7.937499 5.5562499,7.143749 5.2916666,6.0854163 5.2916666,6.0854163 c 0,0 -0.7937499,2.1166664 -1.0583333,3.9687497 1.8520834,-0.2645827 3.96875,-1.058333 3.96875,-1.058333 0,0 -1.0583334,-0.2645837 -1.8520834,-0.5291674 C 10.583334,5.0270823 8.2020833,2.1166663 4.4979166,3.9687496 Z"
       style="opacity:0.306339;fill:#000000;fill-opacity:1;stroke:none;stroke-width:0.264583px;stroke-linecap:butt;stroke-linejoin:miter;stroke-opacity:1" />
    <path
       style="fill:#ffffff;fill-opacity:1;stroke:none;stroke-width:0.264583px;stroke-linecap:butt;stroke-linejoin:miter;stroke-opacity:1"
       d="M 4.4979166,3.7041663 C 7.4083333,3.1749996 9.5250003,4.2333326 5.8208333,7.672916 5.5562499,6.879166 5.2916666,5.820833 5.2916666,5.820833 c 0,0 -0.7937499,2.1166667 -1.0583333,3.9687503 1.8520834,-0.2645833 3.96875,-1.0583337 3.96875,-1.0583337 0,0 -1.0583334,-0.2645833 -1.8520834,-0.529167 C 10.583334,4.7624993 8.2020833,1.852083 4.4979166,3.7041663 Z"
       id="path844"
       sodipodi:nodetypes="ccccccc" />
    <path
       transform="scale(0.26458333)"
       d="M 24 4 A 20.000001 20.000001 0 0 0 4 24 A 20.000001 20.000001 0 0 0 4.0058594 24.511719 A 20.000001 20.000001 0 0 1 24 5 A 20.000001 20.000001 0 0 1 43.994141 24.488281 A 20.000001 20.000001 0 0 0 44 24 A 20.000001 20.000001 0 0 0 24 4 z "
       style="opacity:0.13817003;fill:#ffffff;fill-opacity:1;stroke-width:13.3333;stroke-linecap:round"
       id="circle842" />
    <path
       id="path855"
       style="opacity:0.11541341;fill:#010101;fill-opacity:1;stroke-width:3.52777;stroke-linecap:round"
       d="M 6.3499999,11.641667 A 5.2916669,5.2916669 0 0 1 1.0583333,6.35 5.2916669,5.2916669 0 0 1 1.0598833,6.2146077 5.2916669,5.2916669 0 0 0 6.3499996,11.377083 5.2916669,5.2916669 0 0 0 11.640116,6.220809 5.2916669,5.2916669 0 0 1 11.641716,6.35 5.2916669,5.2916669 0 0 1 6.3500486,11.641667 Z" />
  </g>
</svg>
