<?xml version="1.0" encoding="UTF-8" standalone="no"?>
<svg
   xmlns:dc="http://purl.org/dc/elements/1.1/"
   xmlns:cc="http://creativecommons.org/ns#"
   xmlns:rdf="http://www.w3.org/1999/02/22-rdf-syntax-ns#"
   xmlns:svg="http://www.w3.org/2000/svg"
   xmlns="http://www.w3.org/2000/svg"
   xmlns:xlink="http://www.w3.org/1999/xlink"
   xmlns:sodipodi="http://sodipodi.sourceforge.net/DTD/sodipodi-0.dtd"
   xmlns:inkscape="http://www.inkscape.org/namespaces/inkscape"
   width="16"
   height="16"
   viewBox="0 0 4.2333333 4.2333333"
   version="1.1"
   id="svg8"
   inkscape:version="1.0 (4035a4fb49, 2020-05-01)"
   sodipodi:docname="drive-harddisk.svg">
  <defs
     id="defs2">
    <linearGradient
       id="linearGradient851"
       inkscape:collect="always">
      <stop
         id="stop847"
         offset="0"
         style="stop-color:#9a9c9f;stop-opacity:1" />
      <stop
         id="stop849"
         offset="1"
         style="stop-color:#717272;stop-opacity:1" />
    </linearGradient>
    <clipPath
       id="clipPath859"
       clipPathUnits="userSpaceOnUse">
      <path
         d="m 2.9104167,1.0583333 c -0.4397376,0 -0.7937501,0.3540125 -0.7937501,0.79375 v 8.9958327 c 0,0.439738 0.3540125,0.79375 0.7937501,0.79375 h 6.8791666 c 0.4397377,0 0.7937497,-0.354012 0.7937497,-0.79375 V 4.2333333 l -3.1749997,-3.175 z"
         style="opacity:1;fill:#e1e2e3;fill-opacity:1;stroke-width:0.227717"
         id="path861" />
    </clipPath>
    <linearGradient
       gradientTransform="matrix(0.24999999,0,0,0.33333332,2.0000001,0)"
       gradientUnits="userSpaceOnUse"
       y2="2"
       x2="32"
       y1="46"
       x1="16"
       id="linearGradient853"
       xlink:href="#linearGradient851"
       inkscape:collect="always" />
    <clipPath
       clipPathUnits="userSpaceOnUse"
       id="clipPath859-7">
      <path
         id="path861-5"
         style="opacity:1;fill:#e1e2e3;fill-opacity:1;stroke-width:0.227717"
         d="m 2.9104167,1.0583333 c -0.4397376,0 -0.7937501,0.3540125 -0.7937501,0.79375 v 8.9958327 c 0,0.439738 0.3540125,0.79375 0.7937501,0.79375 h 6.8791666 c 0.4397377,0 0.7937497,-0.354012 0.7937497,-0.79375 V 4.2333333 l -3.1749997,-3.175 z" />
    </clipPath>
  </defs>
  <sodipodi:namedview
     inkscape:snap-smooth-nodes="true"
     inkscape:object-paths="true"
     inkscape:snap-intersection-paths="true"
     id="base"
     pagecolor="#ffffff"
     bordercolor="#666666"
     borderopacity="1.0"
     inkscape:pageopacity="0.0"
     inkscape:pageshadow="2"
     inkscape:zoom="60.6875"
     inkscape:cx="6.4747008"
     inkscape:cy="12.856039"
     inkscape:document-units="mm"
     inkscape:current-layer="layer1"
     inkscape:document-rotation="0"
     showgrid="true"
     units="px"
     inkscape:window-width="1439"
     inkscape:window-height="1003"
     inkscape:window-x="1121"
     inkscape:window-y="32"
     inkscape:window-maximized="0"
     inkscape:snap-grids="true">
    <inkscape:grid
       type="xygrid"
       id="grid833"
       empspacing="4" />
  </sodipodi:namedview>
  <metadata
     id="metadata5">
    <rdf:RDF>
      <cc:Work
         rdf:about="">
        <dc:format>image/svg+xml</dc:format>
        <dc:type
           rdf:resource="http://purl.org/dc/dcmitype/StillImage" />
        <dc:title></dc:title>
      </cc:Work>
    </rdf:RDF>
  </metadata>
  <g
     inkscape:label="Layer 1"
     inkscape:groupmode="layer"
     id="layer1">
    <path
       transform="scale(0.26458333)"
       d="M 4 1 C 3.446 1 3 1.4460003 3 2 L 3 5 L 3 14 C 3 14.554001 3.4460007 15 4 15 L 12 15 C 12.553999 15 13 14.554001 13 14 L 13 5 L 13 2 C 13 1.4460003 12.554 1 12 1 L 9 1 L 7 1 L 4 1 z "
       style="opacity:1;fill:url(#linearGradient853);fill-opacity:1;stroke-width:0.248452"
       id="path842" />
    <path
       sodipodi:nodetypes="csssscssc"
       id="path845"
       style="opacity:0.13;fill:#fcfeff;fill-opacity:1;stroke-width:0.0759057"
       d="m 0.79374999,0.61736137 v -0.0881947 c 0,-0.14657934 0.11800417,-0.26458334 0.26458331,-0.26458334 H 3.175 c 0.146579,0 0.2645833,0.118004 0.2645833,0.26458334 v 0.0881947 C 3.4395833,0.4707817 3.321579,0.35277803 3.175,0.35277803 H 1.0583333 c -0.14657914,0 -0.26458331,0.11800367 -0.26458331,0.26458334 z" />
    <path
       sodipodi:nodetypes="csssscssc"
       d="m 0.79375,3.6159726 v 0.088194 c 0,0.1465794 0.11800416,0.2645834 0.2645833,0.2645834 H 3.175 c 0.146579,0 0.2645833,-0.118004 0.2645833,-0.2645834 v -0.088194 c 0,0.1465793 -0.1180044,0.2645833 -0.2645833,0.2645833 H 1.0583333 c -0.14657914,0 -0.2645833,-0.118004 -0.2645833,-0.2645833 z"
       style="opacity:0.0837249;fill:#000000;fill-opacity:1;stroke-width:0.0759057"
       id="path880" />
    <path
       id="path855"
       style="opacity:0.445176;fill:#000000;fill-opacity:1;stroke-width:1.76389;stroke-linecap:round"
       d="m 2.1149441,0.88194445 a 0.88194453,0.88194453 0 0 0 -0.8802219,0.88194445 0.88194453,0.88194453 0 0 0 0,0.00172 v 0.880222 h 0.8819445 a 0.88194453,0.88194453 0 0 0 0.8819444,-0.881942 0.88194453,0.88194453 0 0 0 -0.8819444,-0.88194445 0.88194453,0.88194453 0 0 0 -0.00172,0 z m 0.00172,0.44097225 A 0.4409722,0.4409722 0 0 1 2.5576389,1.7638889 0.4409722,0.4409722 0 0 1 2.1166667,2.2048611 0.4409722,0.4409722 0 0 1 1.6756944,1.7638889 0.4409722,0.4409722 0 0 1 2.1166667,1.3229167 Z" />
  </g>
</svg>
