<?xml version="1.0" encoding="UTF-8" standalone="no"?>
<svg
   xmlns:dc="http://purl.org/dc/elements/1.1/"
   xmlns:cc="http://creativecommons.org/ns#"
   xmlns:rdf="http://www.w3.org/1999/02/22-rdf-syntax-ns#"
   xmlns:svg="http://www.w3.org/2000/svg"
   xmlns="http://www.w3.org/2000/svg"
   xmlns:xlink="http://www.w3.org/1999/xlink"
   xmlns:sodipodi="http://sodipodi.sourceforge.net/DTD/sodipodi-0.dtd"
   xmlns:inkscape="http://www.inkscape.org/namespaces/inkscape"
   width="48"
   height="48"
   viewBox="0 0 12.7 12.7"
   version="1.1"
   id="svg8"
   inkscape:version="1.0 (4035a4fb49, 2020-05-01)"
   sodipodi:docname="application-vnd.android.package-archive.svg">
  <defs
     id="defs2">
    <linearGradient
       inkscape:collect="always"
       id="linearGradient854">
      <stop
         style="stop-color:#ced3d6;stop-opacity:1"
         offset="0"
         id="stop850" />
      <stop
         style="stop-color:#989d9f;stop-opacity:1"
         offset="1"
         id="stop852" />
    </linearGradient>
    <linearGradient
       inkscape:collect="always"
       id="linearGradient846">
      <stop
         style="stop-color:#61ab44;stop-opacity:1"
         offset="0"
         id="stop842" />
      <stop
         style="stop-color:#74cb52;stop-opacity:1"
         offset="1"
         id="stop844" />
    </linearGradient>
    <clipPath
       id="clipPath859"
       clipPathUnits="userSpaceOnUse">
      <path
         d="m 2.9104167,1.0583333 c -0.4397376,0 -0.7937501,0.3540125 -0.7937501,0.79375 v 8.9958327 c 0,0.439738 0.3540125,0.79375 0.7937501,0.79375 h 6.8791666 c 0.4397377,0 0.7937497,-0.354012 0.7937497,-0.79375 V 4.2333333 l -3.1749997,-3.175 z"
         style="opacity:1;fill:#e1e2e3;fill-opacity:1;stroke-width:0.227717"
         id="path861" />
    </clipPath>
    <linearGradient
       inkscape:collect="always"
       xlink:href="#linearGradient846"
       id="linearGradient848"
       x1="6.3499999"
       y1="11.641666"
       x2="6.3499999"
       y2="1.0583333"
       gradientUnits="userSpaceOnUse" />
    <linearGradient
       inkscape:collect="always"
       xlink:href="#linearGradient854"
       id="linearGradient856"
       x1="21"
       y1="21"
       x2="27"
       y2="31"
       gradientUnits="userSpaceOnUse" />
    <linearGradient
       inkscape:collect="always"
       xlink:href="#linearGradient854"
       id="linearGradient864"
       x1="24"
       y1="4"
       x2="24"
       y2="26"
       gradientUnits="userSpaceOnUse" />
  </defs>
  <sodipodi:namedview
     inkscape:bbox-nodes="true"
     inkscape:snap-bbox="true"
     inkscape:snap-midpoints="false"
     inkscape:snap-smooth-nodes="true"
     inkscape:object-paths="true"
     inkscape:snap-intersection-paths="true"
     id="base"
     pagecolor="#ffffff"
     bordercolor="#666666"
     borderopacity="1.0"
     inkscape:pageopacity="0.0"
     inkscape:pageshadow="2"
     inkscape:zoom="9.1688249"
     inkscape:cx="24.682106"
     inkscape:cy="21.117123"
     inkscape:document-units="mm"
     inkscape:current-layer="layer1"
     inkscape:document-rotation="0"
     showgrid="true"
     units="px"
     inkscape:window-width="1442"
     inkscape:window-height="1003"
     inkscape:window-x="1118"
     inkscape:window-y="32"
     inkscape:window-maximized="0"
     inkscape:snap-grids="true">
    <inkscape:grid
       type="xygrid"
       id="grid833"
       empspacing="4" />
  </sodipodi:namedview>
  <metadata
     id="metadata5">
    <rdf:RDF>
      <cc:Work
         rdf:about="">
        <dc:format>image/svg+xml</dc:format>
        <dc:type
           rdf:resource="http://purl.org/dc/dcmitype/StillImage" />
        <dc:title />
      </cc:Work>
    </rdf:RDF>
  </metadata>
  <g
     inkscape:label="Layer 1"
     inkscape:groupmode="layer"
     id="layer1">
    <rect
       ry="0.79375005"
       y="1.0583333"
       x="1.0583333"
       height="10.583333"
       width="10.583333"
       id="rect844"
       style="opacity:1;fill:url(#linearGradient848);fill-opacity:1;stroke:none;stroke-width:4.23333;stroke-linecap:round" />
    <path
       id="path866"
       style="opacity:0.12753635;fill:#000000;fill-opacity:1;stroke:none;stroke-width:20;stroke-linecap:round"
       d="M 24 22 C 23.899003 22 23.802942 22.017655 23.705078 22.029297 C 23.703795 22.02945 23.702455 22.029142 23.701172 22.029297 A 1.5000001 1.5000001 0 0 0 22.5 23.5 A 1.5000001 1.5000001 0 0 0 22.585938 23.998047 A 1.5000001 1.5000001 0 0 1 24 23 A 1.5000001 1.5000001 0 0 1 25.414062 24.001953 A 1.5000001 1.5000001 0 0 0 25.5 23.5 A 1.5000001 1.5000001 0 0 0 24.306641 22.03125 C 24.305359 22.031091 24.304017 22.031407 24.302734 22.03125 C 24.202335 22.018983 24.103713 22 24 22 z M 23.949219 26 A 2.0000004 2.0000004 0 0 0 22 28 A 2.0000004 2.0000004 0 0 0 22.064453 28.501953 A 2.0000004 2.0000004 0 0 1 23.951172 27 A 2.0000004 2.0000004 0 0 1 24 27 A 2.0000004 2.0000004 0 0 1 25.935547 28.498047 A 2.0000004 2.0000004 0 0 0 26 28 A 2.0000004 2.0000004 0 0 0 24 26 A 2.0000004 2.0000004 0 0 0 23.951172 26 A 2.0000004 2.0000004 0 0 1 23.949219 26 z M 21.048828 28.496094 C 21.027522 28.66437 20.999975 28.83396 21 29 C 21 30.656854 22.343146 32 24 32 C 25.656854 32 27 30.656854 27 29 C 26.999917 28.83407 26.972526 28.664322 26.951172 28.496094 C 26.736009 29.783871 25.704689 30.782258 24.404297 30.958984 A 2.0000004 2.0000004 0 0 1 24.394531 30.960938 A 2.0000004 2.0000004 0 0 1 24 31 A 2.0000004 2.0000004 0 0 1 23.609375 30.960938 C 22.302612 30.789426 21.26474 29.788355 21.048828 28.496094 z "
       transform="scale(0.26458333)" />
    <rect
       ry="0"
       y="1.0583333"
       x="5.8208332"
       height="4.7625003"
       width="1.0583335"
       id="rect857"
       style="opacity:0.271001;fill:#000000;fill-opacity:1;stroke:none;stroke-width:3.57782;stroke-linecap:round" />
    <path
       transform="scale(0.26458333)"
       d="M 7 4 C 5.338 4 4 5.338 4 7 L 4 8 C 4 6.338 5.338 5 7 5 L 20 5 L 28 5 L 41 5 C 42.661998 5 44 6.338 44 8 L 44 7 C 44 5.338 42.661998 4 41 4 L 28 4 L 20 4 L 7 4 z "
       style="opacity:0.22805809;fill:#fcfeff;fill-opacity:1;stroke-width:0.860663"
       id="path874" />
    <path
       sodipodi:nodetypes="csssscssc"
       transform="scale(0.26458333)"
       d="m 4.0000001,40.000001 v 1 c 0,1.662002 1.338,3 3,3 H 41.000001 c 1.661999,0 3,-1.337998 3,-3 v -1 c 0,1.662002 -1.338003,3 -3,3 H 7.0000001 c -1.662,0 -3,-1.337998 -3,-3 z"
       style="opacity:0.0837249;fill:#000000;fill-opacity:1;stroke-width:0.860663"
       id="path880" />
    <path
       transform="scale(0.26458333)"
       d="M 23 4 L 23 5 L 24 5 L 24 4 L 23 4 z M 24 5 L 24 6 L 25 6 L 25 5 L 24 5 z M 24 6 L 23 6 L 23 7 L 24 7 L 24 6 z M 24 7 L 24 8 L 25 8 L 25 7 L 24 7 z M 24 8 L 23 8 L 23 9 L 24 9 L 24 8 z M 24 9 L 24 10 L 25 10 L 25 9 L 24 9 z M 24 10 L 23 10 L 23 11 L 24 11 L 24 10 z M 24 11 L 24 12 L 25 12 L 25 11 L 24 11 z M 24 12 L 23 12 L 23 13 L 24 13 L 24 12 z M 24 13 L 24 14 L 25 14 L 25 13 L 24 13 z M 24 14 L 23 14 L 23 15 L 24 15 L 24 14 z M 24 15 L 24 16 L 25 16 L 25 15 L 24 15 z M 24 16 L 23 16 L 23 17 L 24 17 L 24 16 z M 24 17 L 24 18 L 25 18 L 25 17 L 24 17 z M 24 18 L 23 18 L 23 19 L 24 19 L 24 18 z M 24 19 L 24 20 L 25 20 L 25 19 L 24 19 z M 24 20 L 23 20 L 23 21 L 24 21 L 24 20 z M 24 21 L 24 22 L 25 22 L 25 21 L 24 21 z "
       style="opacity:1;fill:url(#linearGradient864);fill-opacity:1;stroke:none;stroke-width:7.99998;stroke-linecap:round"
       id="rect849" />
    <path
       sodipodi:nodetypes="cccccccccccccccccccccccccccccccccccccccccccccccccccccccccccccccccccccccccccccccccccccccccc"
       transform="scale(0.26458333)"
       d="m 24,4 v 1 h 1 V 4 Z m 0,1 h -1 v 1 h 1 z m 0,1 v 1 h 1 V 6 Z m 0,1 h -1 v 1 h 1 z m 0,1 v 1 h 1 V 8 Z M 24,9.0000001 23,9 v 1 h 1 z M 24,10 v 1 h 1 v -1 z m 0,1 h -1 v 1 h 1 z m 0,1 v 1 h 1 v -1 z m 0,1 h -1 v 1 h 1 z m 0,1 v 1 h 1 v -1 z m 0,1 h -1 v 1 h 1 z m 0,1 v 1 h 1 v -1 z m 0,1 h -1 v 1 h 1 z m 0,1 v 1 h 1 v -1 z m 0,1 h -1 v 1 h 1 z m 0,1 v 1 h 1 v -1 z m 0,1 h -1 v 1 h 1 z"
       style="opacity:0.107476;fill:#000000;fill-opacity:1;stroke:none;stroke-width:7.99998;stroke-linecap:round"
       id="path887" />
    <path
       transform="scale(0.26458333)"
       d="M 24 21 C 22.619288 21 21.5 22.119288 21.5 23.5 C 21.5 26 20.999844 26.957231 21 28 C 21 29.656854 22.343146 31 24 31 C 25.656854 31 27 29.656854 27 28 C 26.999477 26.957926 26.5 26 26.5 23.5 C 26.5 22.119288 25.380712 21 24 21 z M 24 22 A 1.5000001 1.5000001 0 0 1 25.5 23.5 A 1.5000001 1.5000001 0 0 1 24 25 A 1.5000001 1.5000001 0 0 1 22.5 23.5 A 1.5000001 1.5000001 0 0 1 24 22 z M 23.951172 26 A 2.0000004 2.0000004 0 0 1 24 26 A 2.0000004 2.0000004 0 0 1 26 28 A 2.0000004 2.0000004 0 0 1 24 30 A 2.0000004 2.0000004 0 0 1 22 28 A 2.0000004 2.0000004 0 0 1 23.951172 26 z "
       style="opacity:1;fill:url(#linearGradient856);fill-opacity:1;stroke:none;stroke-width:20;stroke-linecap:round"
       id="circle897" />
  </g>
</svg>
