<?xml version="1.0" encoding="UTF-8" standalone="no"?>
<svg
   xmlns:dc="http://purl.org/dc/elements/1.1/"
   xmlns:cc="http://creativecommons.org/ns#"
   xmlns:rdf="http://www.w3.org/1999/02/22-rdf-syntax-ns#"
   xmlns:svg="http://www.w3.org/2000/svg"
   xmlns="http://www.w3.org/2000/svg"
   xmlns:sodipodi="http://sodipodi.sourceforge.net/DTD/sodipodi-0.dtd"
   xmlns:inkscape="http://www.inkscape.org/namespaces/inkscape"
   width="48"
   height="48"
   viewBox="0 0 12.7 12.7"
   version="1.1"
   id="svg8"
   inkscape:version="1.0 (4035a4fb49, 2020-05-01)"
   sodipodi:docname="text-xml.svg">
  <defs
     id="defs2">
    <clipPath
       id="clipPath859"
       clipPathUnits="userSpaceOnUse">
      <path
         d="m 2.9104167,1.0583333 c -0.4397376,0 -0.7937501,0.3540125 -0.7937501,0.79375 v 8.9958327 c 0,0.439738 0.3540125,0.79375 0.7937501,0.79375 h 6.8791666 c 0.4397377,0 0.7937497,-0.354012 0.7937497,-0.79375 V 4.2333333 l -3.1749997,-3.175 z"
         style="opacity:1;fill:#e1e2e3;fill-opacity:1;stroke-width:0.227717"
         id="path861" />
    </clipPath>
  </defs>
  <sodipodi:namedview
     inkscape:snap-smooth-nodes="true"
     inkscape:object-paths="true"
     inkscape:snap-intersection-paths="true"
     id="base"
     pagecolor="#ffffff"
     bordercolor="#666666"
     borderopacity="1.0"
     inkscape:pageopacity="0.0"
     inkscape:pageshadow="2"
     inkscape:zoom="6.3720035"
     inkscape:cx="31.414619"
     inkscape:cy="17.492529"
     inkscape:document-units="mm"
     inkscape:current-layer="layer1"
     inkscape:document-rotation="0"
     showgrid="true"
     units="px"
     inkscape:window-width="1442"
     inkscape:window-height="1003"
     inkscape:window-x="1118"
     inkscape:window-y="32"
     inkscape:window-maximized="0"
     inkscape:snap-grids="true">
    <inkscape:grid
       type="xygrid"
       id="grid833"
       empspacing="4" />
  </sodipodi:namedview>
  <metadata
     id="metadata5">
    <rdf:RDF>
      <cc:Work
         rdf:about="">
        <dc:format>image/svg+xml</dc:format>
        <dc:type
           rdf:resource="http://purl.org/dc/dcmitype/StillImage" />
        <dc:title />
      </cc:Work>
    </rdf:RDF>
  </metadata>
  <g
     inkscape:label="Layer 1"
     inkscape:groupmode="layer"
     id="layer1">
    <path
       transform="scale(0.26458333)"
       d="M 11 4 C 9.338 4 8 5.338 8 7 L 8 41 C 8 42.662002 9.338 44 11 44 L 37 44 C 38.661999 44 40 42.662002 40 41 L 40 16 L 28 4 L 11 4 z "
       style="opacity:1;fill:#e38926;fill-opacity:1;stroke-width:0.860663"
       id="rect835" />
    <path
       sodipodi:nodetypes="csscc"
       d="M 7.4083334,1.0583334 7.14375,3.7041667 c -0.043755,0.437555 0.3561949,0.8375055 0.79375,0.79375 l 2.645833,-0.2645834 z"
       style="opacity:0.22591417;fill:#000000;fill-opacity:1;stroke-width:0.227717"
       clip-path="none"
       id="rect866" />
    <rect
       clip-path="url(#clipPath859)"
       ry="0.79375005"
       y="-1.0583333"
       x="7.4083333"
       height="5.2916665"
       width="6.3499999"
       id="rect838"
       style="opacity:1;fill:#fc9b2a;fill-opacity:1;stroke-width:0.227717" />
    <path
       sodipodi:nodetypes="sscsccs"
       transform="scale(0.26458333)"
       d="M 11,4 C 9.338,4 8,5.338 8,7 V 8 C 8,6.338 9.338,5 11,5 H 28 V 4 Z"
       style="opacity:0.12995063;fill:#fcfeff;fill-opacity:1;stroke-width:0.860663"
       id="path874" />
    <path
       transform="scale(0.26458333)"
       d="M 8 40 L 8 41 C 8 42.662002 9.338 44 11 44 L 37 44 C 38.661999 44 40 42.662002 40 41 L 40 40 C 40 41.662002 38.661997 43 37 43 L 11 43 C 9.338 43 8 41.662002 8 40 z "
       style="opacity:0.08372486;fill:#000000;fill-opacity:1;stroke-width:0.860663"
       id="path880" />
    <path
       d="M 5.2007161,6.9701172 4.0783039,8.0925295 3.7041667,8.4666667 4.0783039,8.8408039 5.2007161,9.9637329 5.5748534,9.5895957 4.4524414,8.4666667 5.5748534,7.3442545 Z"
       style="opacity:1;fill:#ffffff;fill-opacity:1;stroke-width:0.264583"
       id="rect842" />
    <rect
       transform="rotate(15)"
       style="opacity:1;fill:#ffffff;fill-opacity:1;stroke-width:0.324047"
       id="rect846"
       width="0.52916664"
       height="3.1750007"
       x="8.0603809"
       y="4.9471707"
       ry="0" />
    <path
       id="path856"
       style="opacity:1;fill:#ffffff;fill-opacity:1;stroke-width:0.264583"
       d="M 7.4992839,6.9701172 8.6216961,8.0925294 8.9958334,8.4666667 8.6216961,8.8408039 7.4992839,9.9637329 7.1251467,9.5895956 8.2475586,8.4666667 7.1251467,7.3442545 Z" />
  </g>
</svg>
