<?xml version="1.0" encoding="UTF-8" standalone="no"?>
<svg
   xmlns:dc="http://purl.org/dc/elements/1.1/"
   xmlns:cc="http://creativecommons.org/ns#"
   xmlns:rdf="http://www.w3.org/1999/02/22-rdf-syntax-ns#"
   xmlns:svg="http://www.w3.org/2000/svg"
   xmlns="http://www.w3.org/2000/svg"
   xmlns:xlink="http://www.w3.org/1999/xlink"
   xmlns:sodipodi="http://sodipodi.sourceforge.net/DTD/sodipodi-0.dtd"
   xmlns:inkscape="http://www.inkscape.org/namespaces/inkscape"
   width="48"
   height="48"
   viewBox="0 0 12.7 12.7"
   version="1.1"
   id="svg8"
   inkscape:version="1.0 (4035a4fb49, 2020-05-01)"
   sodipodi:docname="text-x-kotlin.svg">
  <defs
     id="defs2">
    <linearGradient
       id="linearGradient868"
       inkscape:collect="always">
      <stop
         id="stop864"
         offset="0"
         style="stop-color:#ff8f00;stop-opacity:1" />
      <stop
         id="stop866"
         offset="1"
         style="stop-color:#ff00e5;stop-opacity:1" />
    </linearGradient>
    <linearGradient
       id="linearGradient850"
       inkscape:collect="always">
      <stop
         id="stop846"
         offset="0"
         style="stop-color:#bc00ff;stop-opacity:1" />
      <stop
         id="stop848"
         offset="1"
         style="stop-color:#00c9f7;stop-opacity:1" />
    </linearGradient>
    <clipPath
       id="clipPath859"
       clipPathUnits="userSpaceOnUse">
      <path
         d="m 2.9104167,1.0583333 c -0.4397376,0 -0.7937501,0.3540125 -0.7937501,0.79375 v 8.9958327 c 0,0.439738 0.3540125,0.79375 0.7937501,0.79375 h 6.8791666 c 0.4397377,0 0.7937497,-0.354012 0.7937497,-0.79375 V 4.2333333 l -3.1749997,-3.175 z"
         style="opacity:1;fill:#e1e2e3;fill-opacity:1;stroke-width:0.227717"
         id="path861" />
    </clipPath>
    <linearGradient
       gradientTransform="translate(0,0.52916677)"
       gradientUnits="userSpaceOnUse"
       y2="9.5249996"
       x2="4.2333331"
       y1="7.4083333"
       x1="6.3499999"
       id="linearGradient852"
       xlink:href="#linearGradient850"
       inkscape:collect="always" />
    <linearGradient
       gradientTransform="translate(0,0.52916677)"
       gradientUnits="userSpaceOnUse"
       y2="7.4083333"
       x2="4.2333331"
       y1="5.2916665"
       x1="6.3499999"
       id="linearGradient862"
       xlink:href="#linearGradient850"
       inkscape:collect="always" />
    <linearGradient
       gradientTransform="translate(0,0.52916677)"
       gradientUnits="userSpaceOnUse"
       y2="9.5249996"
       x2="4.2333331"
       y1="5.2916665"
       x1="8.4666662"
       id="linearGradient870"
       xlink:href="#linearGradient868"
       inkscape:collect="always" />
  </defs>
  <sodipodi:namedview
     inkscape:snap-smooth-nodes="true"
     inkscape:object-paths="true"
     inkscape:snap-intersection-paths="true"
     id="base"
     pagecolor="#ffffff"
     bordercolor="#666666"
     borderopacity="1.0"
     inkscape:pageopacity="0.0"
     inkscape:pageshadow="2"
     inkscape:zoom="18.022748"
     inkscape:cx="25.182711"
     inkscape:cy="29.696434"
     inkscape:document-units="mm"
     inkscape:current-layer="layer1"
     inkscape:document-rotation="0"
     showgrid="true"
     units="px"
     inkscape:window-width="1526"
     inkscape:window-height="1003"
     inkscape:window-x="1034"
     inkscape:window-y="32"
     inkscape:window-maximized="0"
     inkscape:snap-grids="true">
    <inkscape:grid
       type="xygrid"
       id="grid833"
       empspacing="4" />
  </sodipodi:namedview>
  <metadata
     id="metadata5">
    <rdf:RDF>
      <cc:Work
         rdf:about="">
        <dc:format>image/svg+xml</dc:format>
        <dc:type
           rdf:resource="http://purl.org/dc/dcmitype/StillImage" />
        <dc:title />
      </cc:Work>
    </rdf:RDF>
  </metadata>
  <g
     inkscape:label="Layer 1"
     inkscape:groupmode="layer"
     id="layer1">
    <path
       transform="scale(0.26458333)"
       d="M 11 4 C 9.338 4 8 5.338 8 7 L 8 41 C 8 42.662002 9.338 44 11 44 L 37 44 C 38.661999 44 40 42.662002 40 41 L 40 16 L 28 4 L 11 4 z "
       style="opacity:1;fill:#242529;fill-opacity:1;stroke-width:0.860663"
       id="rect835" />
    <path
       sodipodi:nodetypes="csscc"
       d="M 7.4083334,1.0583334 7.14375,3.7041667 c -0.043755,0.437555 0.3561949,0.8375055 0.79375,0.79375 l 2.645833,-0.2645834 z"
       style="opacity:0.22591417;fill:#000000;fill-opacity:1;stroke-width:0.227717"
       clip-path="none"
       id="rect866" />
    <rect
       clip-path="url(#clipPath859)"
       ry="0.79375005"
       y="-1.0583333"
       x="7.4083333"
       height="5.2916665"
       width="6.3499999"
       id="rect838"
       style="opacity:1;fill:#2e2f34;fill-opacity:1;stroke-width:0.227717" />
    <path
       sodipodi:nodetypes="sscsccs"
       transform="scale(0.26458333)"
       d="M 11,4 C 9.338,4 8,5.338 8,7 V 8 C 8,6.338 9.338,5 11,5 H 28 V 4 Z"
       style="opacity:0.05483127;fill:#eefaff;fill-opacity:1;stroke-width:0.860663"
       id="path874" />
    <path
       transform="scale(0.26458333)"
       d="M 8 40 L 8 41 C 8 42.662002 9.338 44 11 44 L 37 44 C 38.661999 44 40 42.662002 40 41 L 40 40 C 40 41.662002 38.661997 43 37 43 L 11 43 C 9.338 43 8 41.662002 8 40 z "
       style="opacity:0.09889956;fill:#000000;fill-opacity:1;stroke-width:0.860663"
       id="path880" />
    <path
       style="fill:url(#linearGradient852);fill-opacity:1;stroke:none;stroke-width:0.264583px;stroke-linecap:butt;stroke-linejoin:miter;stroke-opacity:1"
       d="M 4.2333333,5.8208334 8.4666666,10.054167 H 4.2333333 Z"
       id="path844" />
    <path
       id="path842"
       d="M 4.2333333,10.054167 8.4666666,5.8208334 H 4.2333333 Z"
       style="fill:url(#linearGradient870);fill-opacity:1;stroke:none;stroke-width:0.264583px;stroke-linecap:butt;stroke-linejoin:miter;stroke-opacity:1" />
    <path
       style="fill:url(#linearGradient862);fill-opacity:1;stroke:none;stroke-width:0.132291px;stroke-linecap:butt;stroke-linejoin:miter;stroke-opacity:1"
       d="M 4.2333333,7.9375001 6.35,5.8208334 H 4.2333333 Z"
       id="path854" />
  </g>
</svg>
