<?xml version="1.0" encoding="UTF-8" standalone="no"?>
<svg
   xmlns:dc="http://purl.org/dc/elements/1.1/"
   xmlns:cc="http://creativecommons.org/ns#"
   xmlns:rdf="http://www.w3.org/1999/02/22-rdf-syntax-ns#"
   xmlns:svg="http://www.w3.org/2000/svg"
   xmlns="http://www.w3.org/2000/svg"
   xmlns:xlink="http://www.w3.org/1999/xlink"
   xmlns:sodipodi="http://sodipodi.sourceforge.net/DTD/sodipodi-0.dtd"
   xmlns:inkscape="http://www.inkscape.org/namespaces/inkscape"
   width="48"
   height="48"
   viewBox="0 0 12.7 12.7"
   version="1.1"
   id="svg8"
   inkscape:version="1.0 (4035a4fb49, 2020-05-01)"
   sodipodi:docname="text-x-vala.svg">
  <defs
     id="defs2">
    <linearGradient
       id="linearGradient895"
       inkscape:collect="always">
      <stop
         id="stop891"
         offset="0"
         style="stop-color:#785bab;stop-opacity:1" />
      <stop
         id="stop893"
         offset="1"
         style="stop-color:#9375c6;stop-opacity:1" />
    </linearGradient>
    <clipPath
       id="clipPath859"
       clipPathUnits="userSpaceOnUse">
      <path
         d="m 2.9104167,1.0583333 c -0.4397376,0 -0.7937501,0.3540125 -0.7937501,0.79375 v 8.9958327 c 0,0.439738 0.3540125,0.79375 0.7937501,0.79375 h 6.8791666 c 0.4397377,0 0.7937497,-0.354012 0.7937497,-0.79375 V 4.2333333 l -3.1749997,-3.175 z"
         style="opacity:1;fill:#e1e2e3;fill-opacity:1;stroke-width:0.227717"
         id="path861" />
    </clipPath>
    <linearGradient
       gradientUnits="userSpaceOnUse"
       y2="4"
       x2="24"
       y1="44"
       x1="24"
       id="linearGradient897"
       xlink:href="#linearGradient895"
       inkscape:collect="always" />
  </defs>
  <sodipodi:namedview
     inkscape:snap-smooth-nodes="true"
     inkscape:object-paths="true"
     inkscape:snap-intersection-paths="true"
     id="base"
     pagecolor="#ffffff"
     bordercolor="#666666"
     borderopacity="1.0"
     inkscape:pageopacity="0.0"
     inkscape:pageshadow="2"
     inkscape:zoom="14.605946"
     inkscape:cx="19.382769"
     inkscape:cy="10.688898"
     inkscape:document-units="mm"
     inkscape:current-layer="layer1"
     inkscape:document-rotation="0"
     showgrid="true"
     units="px"
     inkscape:window-width="1507"
     inkscape:window-height="1003"
     inkscape:window-x="1053"
     inkscape:window-y="32"
     inkscape:window-maximized="0"
     inkscape:snap-grids="true">
    <inkscape:grid
       type="xygrid"
       id="grid833"
       empspacing="4" />
  </sodipodi:namedview>
  <metadata
     id="metadata5">
    <rdf:RDF>
      <cc:Work
         rdf:about="">
        <dc:format>image/svg+xml</dc:format>
        <dc:type
           rdf:resource="http://purl.org/dc/dcmitype/StillImage" />
        <dc:title />
      </cc:Work>
    </rdf:RDF>
  </metadata>
  <g
     inkscape:label="Layer 1"
     inkscape:groupmode="layer"
     id="layer1">
    <path
       transform="scale(0.26458333)"
       d="M 11 4 C 9.338 4 8 5.338 8 7 L 8 41 C 8 42.662002 9.338 44 11 44 L 37 44 C 38.661999 44 40 42.662002 40 41 L 40 16 L 28 4 L 11 4 z "
       style="opacity:1;fill:url(#linearGradient897);fill-opacity:1;stroke-width:0.860663"
       id="rect835" />
    <path
       sodipodi:nodetypes="csscc"
       d="M 7.4083334,1.0583334 7.14375,3.7041667 c -0.043755,0.437555 0.3561949,0.8375055 0.79375,0.79375 l 2.645833,-0.2645834 z"
       style="opacity:0.22591417;fill:#000000;fill-opacity:1;stroke-width:0.227717"
       clip-path="none"
       id="rect866" />
    <rect
       clip-path="url(#clipPath859)"
       ry="0.79375005"
       y="-1.0583333"
       x="7.4083333"
       height="5.2916665"
       width="6.3499999"
       id="rect838"
       style="opacity:1;fill:#9d7dd5;fill-opacity:1;stroke-width:0.227717" />
    <path
       sodipodi:nodetypes="sscsccs"
       transform="scale(0.26458333)"
       d="M 11,4 C 9.338,4 8,5.338 8,7 V 8 C 8,6.338 9.338,5 11,5 H 28 V 4 Z"
       style="opacity:0.12995063;fill:#fcfeff;fill-opacity:1;stroke-width:0.860663"
       id="path874" />
    <path
       transform="scale(0.26458333)"
       d="M 8 40 L 8 41 C 8 42.662002 9.338 44 11 44 L 37 44 C 38.661999 44 40 42.662002 40 41 L 40 40 C 40 41.662002 38.661997 43 37 43 L 11 43 C 9.338 43 8 41.662002 8 40 z "
       style="opacity:0.08372486;fill:#000000;fill-opacity:1;stroke-width:0.860663"
       id="path880" />
    <g
       id="text4203"
       fill="#ffffff"
       transform="matrix(0.20289486,0,0,0.20289486,0.02653095,1.4276742)">
      <path
         id="path4171"
         d="M 28.138,45.125 27.574,21.216 q -2.4609,0.92285 -3.8452,2.8882 -1.3672,1.9653 -1.3672,4.8877 0,0.6665 0.06836,1.0938 0.08545,0.41016 0.1709,0.6665 0.08545,0.23926 0.15381,0.37598 0.08545,0.13672 0.08545,0.23926 -0.90576,0 -1.6064,-0.1709 -0.70068,-0.18799 -1.1792,-0.58105 -0.462,-0.392 -0.719,-1.042 -0.239,-0.649 -0.239,-1.606 0,-1.1621 0.49561,-2.29 0.5127,-1.1279 1.3843,-2.1362 0.88867,-1.0083 2.0679,-1.8628 1.1963,-0.85449 2.5464,-1.4697 1.3672,-0.63232 2.8369,-0.97412 1.4868,-0.35889 2.9565,-0.35889 0.39307,0 0.71777,0.01709 0.3418,0.01709 0.68359,0.05127 l 0.30762,21.533 7.3657,-21.431 h 2.4438 l -9.7241,26.079 h -5.0415 z"
         fill="#ffffff" />
    </g>
  </g>
</svg>
