<?xml version="1.0" encoding="UTF-8" standalone="no"?>
<svg
   xmlns:dc="http://purl.org/dc/elements/1.1/"
   xmlns:cc="http://creativecommons.org/ns#"
   xmlns:rdf="http://www.w3.org/1999/02/22-rdf-syntax-ns#"
   xmlns:svg="http://www.w3.org/2000/svg"
   xmlns="http://www.w3.org/2000/svg"
   xmlns:sodipodi="http://sodipodi.sourceforge.net/DTD/sodipodi-0.dtd"
   xmlns:inkscape="http://www.inkscape.org/namespaces/inkscape"
   width="16"
   height="16"
   viewBox="0 0 4.2333333 4.2333333"
   version="1.1"
   id="svg8"
   inkscape:version="1.0 (4035a4fb49, 2020-05-01)"
   sodipodi:docname="text-html.svg">
  <defs
     id="defs2">
    <clipPath
       id="clipPath859"
       clipPathUnits="userSpaceOnUse">
      <path
         d="m 2.9104167,1.0583333 c -0.4397376,0 -0.7937501,0.3540125 -0.7937501,0.79375 v 8.9958327 c 0,0.439738 0.3540125,0.79375 0.7937501,0.79375 h 6.8791666 c 0.4397377,0 0.7937497,-0.354012 0.7937497,-0.79375 V 4.2333333 l -3.1749997,-3.175 z"
         style="opacity:1;fill:#e1e2e3;fill-opacity:1;stroke-width:0.227717"
         id="path861" />
    </clipPath>
  </defs>
  <sodipodi:namedview
     inkscape:snap-page="true"
     inkscape:snap-smooth-nodes="true"
     inkscape:object-paths="true"
     inkscape:snap-intersection-paths="true"
     id="base"
     pagecolor="#ffffff"
     bordercolor="#666666"
     borderopacity="1.0"
     inkscape:pageopacity="0.0"
     inkscape:pageshadow="2"
     inkscape:zoom="39.580352"
     inkscape:cx="8.3729492"
     inkscape:cy="8.0922178"
     inkscape:document-units="mm"
     inkscape:current-layer="layer1"
     inkscape:document-rotation="0"
     showgrid="true"
     units="px"
     inkscape:window-width="1427"
     inkscape:window-height="1003"
     inkscape:window-x="1224"
     inkscape:window-y="361"
     inkscape:window-maximized="0"
     inkscape:snap-grids="true"
     inkscape:snap-bbox="true"
     inkscape:snap-bbox-midpoints="true"
     inkscape:bbox-nodes="true"
     inkscape:snap-bbox-edge-midpoints="true">
    <inkscape:grid
       type="xygrid"
       id="grid833"
       empspacing="4" />
  </sodipodi:namedview>
  <metadata
     id="metadata5">
    <rdf:RDF>
      <cc:Work
         rdf:about="">
        <dc:format>image/svg+xml</dc:format>
        <dc:type
           rdf:resource="http://purl.org/dc/dcmitype/StillImage" />
        <dc:title />
      </cc:Work>
    </rdf:RDF>
  </metadata>
  <g
     inkscape:label="Layer 1"
     inkscape:groupmode="layer"
     id="layer1">
    <path
       sodipodi:nodetypes="ssssssccs"
       d="m 1.0583333,0.26458333 c -0.14657916,0 -0.2645833,0.1180042 -0.2645833,0.2645833 V 3.7041667 c 0,0.1465793 0.11800414,0.2645833 0.2645833,0.2645833 h 2.1166668 c 0.146579,0 0.2645832,-0.118004 0.2645832,-0.2645833 V 1.3229164 L 2.3812503,0.26458333 Z"
       style="opacity:1;fill:#0987f7;fill-opacity:1;stroke-width:0.0759057"
       id="rect835" />
    <path
       sodipodi:nodetypes="csscc"
       d="M 2.38125,0.26458333 2.2930556,1.1465275 C 2.2784706,1.2923791 2.4117872,1.4256959 2.5576388,1.4111108 L 3.439583,1.3229158 Z"
       style="opacity:0.225914;fill:#000000;fill-opacity:1;stroke-width:0.0759057"
       clip-path="none"
       id="rect866" />
    <rect
       transform="matrix(0.33333326,0,0,0.33333326,-0.0881939,-0.0881945)"
       clip-path="url(#clipPath859)"
       ry="0.79375005"
       y="-1.0583333"
       x="7.4083333"
       height="5.2916665"
       width="6.3499999"
       id="rect838"
       style="opacity:1;fill:#2c9dff;fill-opacity:1;stroke-width:0.227717" />
    <path
       sodipodi:nodetypes="sscsccs"
       d="m 1.0583333,0.26458333 c -0.1465791,0 -0.26458324,0.1180042 -0.26458324,0.2645833 v 0.088194 c 0,-0.1465791 0.11800414,-0.2645832 0.26458324,-0.2645832 l 1.3229167,9e-7 v -0.088195 z"
       style="opacity:0.129951;fill:#fcfeff;fill-opacity:1;stroke-width:0.0759057"
       id="path874" />
    <path
       sodipodi:nodetypes="csssscssc"
       d="m 0.79375006,3.6159727 v 0.088194 c 0,0.1465793 0.11800414,0.2645833 0.26458324,0.2645833 H 3.175 c 0.146579,0 0.2645832,-0.118004 0.2645832,-0.2645833 V 3.6159727 C 3.4395832,3.762552 3.3215788,3.880556 3.175,3.880556 H 1.0583333 c -0.1465791,0 -0.26458324,-0.118004 -0.26458324,-0.2645833 z"
       style="opacity:0.0837249;fill:#000000;fill-opacity:1;stroke-width:0.0759057"
       id="path880" />
    <path
       id="rect842"
       style="opacity:1;fill:#ffffff;fill-opacity:1;stroke-width:0.119062"
       d="M 1.5994886,2.2369694 1.0944031,2.742055 0.92604138,2.9104167 1.0944031,3.0787784 1.5994886,3.5840965 1.7678505,3.4157348 1.2627651,2.9104167 1.7678505,2.4053312 Z" />
    <rect
       ry="0"
       y="1.5490379"
       x="2.6787517"
       height="1.4287503"
       width="0.238125"
       id="rect846"
       style="opacity:1;fill:#ffffff;fill-opacity:1;stroke-width:0.145821"
       transform="rotate(15)" />
    <path
       d="M 2.6338442,2.2369694 3.1389297,2.742055 3.3072914,2.9104167 3.1389297,3.0787784 2.6338442,3.5840965 2.4654823,3.4157348 2.9705677,2.9104167 2.4654823,2.4053312 Z"
       style="opacity:1;fill:#ffffff;fill-opacity:1;stroke-width:0.119062"
       id="path856" />
  </g>
</svg>
