<?xml version="1.0" encoding="UTF-8" standalone="no"?>
<svg
   xmlns:dc="http://purl.org/dc/elements/1.1/"
   xmlns:cc="http://creativecommons.org/ns#"
   xmlns:rdf="http://www.w3.org/1999/02/22-rdf-syntax-ns#"
   xmlns:svg="http://www.w3.org/2000/svg"
   xmlns="http://www.w3.org/2000/svg"
   xmlns:xlink="http://www.w3.org/1999/xlink"
   xmlns:sodipodi="http://sodipodi.sourceforge.net/DTD/sodipodi-0.dtd"
   xmlns:inkscape="http://www.inkscape.org/namespaces/inkscape"
   sodipodi:docname="drive-removable-media.svg"
   inkscape:version="1.0 (4035a4fb49, 2020-05-01)"
   id="svg8"
   version="1.1"
   viewBox="0 0 12.7 12.7"
   height="48"
   width="48">
  <defs
     id="defs2">
    <linearGradient
       inkscape:collect="always"
       id="linearGradient851">
      <stop
         style="stop-color:#9a9c9f;stop-opacity:1"
         offset="0"
         id="stop847" />
      <stop
         style="stop-color:#717272;stop-opacity:1"
         offset="1"
         id="stop849" />
    </linearGradient>
    <clipPath
       clipPathUnits="userSpaceOnUse"
       id="clipPath859">
      <path
         id="path861"
         style="opacity:1;fill:#e1e2e3;fill-opacity:1;stroke-width:0.227717"
         d="m 2.9104167,1.0583333 c -0.4397376,0 -0.7937501,0.3540125 -0.7937501,0.79375 v 8.9958327 c 0,0.439738 0.3540125,0.79375 0.7937501,0.79375 h 6.8791666 c 0.4397377,0 0.7937497,-0.354012 0.7937497,-0.79375 V 4.2333333 l -3.1749997,-3.175 z" />
    </clipPath>
    <linearGradient
       inkscape:collect="always"
       xlink:href="#linearGradient851"
       id="linearGradient853"
       x1="16"
       y1="46"
       x2="32"
       y2="2"
       gradientUnits="userSpaceOnUse" />
  </defs>
  <sodipodi:namedview
     inkscape:snap-grids="true"
     inkscape:window-maximized="0"
     inkscape:window-y="32"
     inkscape:window-x="1034"
     inkscape:window-height="1003"
     inkscape:window-width="1526"
     units="px"
     showgrid="true"
     inkscape:document-rotation="0"
     inkscape:current-layer="layer1"
     inkscape:document-units="mm"
     inkscape:cy="24.230041"
     inkscape:cx="15.627797"
     inkscape:zoom="4.2750203"
     inkscape:pageshadow="2"
     inkscape:pageopacity="0.0"
     borderopacity="1.0"
     bordercolor="#666666"
     pagecolor="#ffffff"
     id="base"
     inkscape:snap-intersection-paths="true"
     inkscape:object-paths="true"
     inkscape:snap-smooth-nodes="true">
    <inkscape:grid
       empspacing="4"
       id="grid833"
       type="xygrid" />
  </sodipodi:namedview>
  <metadata
     id="metadata5">
    <rdf:RDF>
      <cc:Work
         rdf:about="">
        <dc:format>image/svg+xml</dc:format>
        <dc:type
           rdf:resource="http://purl.org/dc/dcmitype/StillImage" />
        <dc:title />
      </cc:Work>
    </rdf:RDF>
  </metadata>
  <g
     id="layer1"
     inkscape:groupmode="layer"
     inkscape:label="Layer 1">
    <path
       id="path842"
       style="opacity:1;fill:url(#linearGradient853);fill-opacity:1;stroke-width:0.860663"
       d="M 11,4 C 9.338,4 8,5.338 8,7 v 34 c 0,1.662002 1.3380011,3 3,3 h 26 c 1.661999,0 3,-1.337998 3,-3 V 7 C 40,5.338 38.662001,4 37,4 Z"
       transform="scale(0.26458333)"
       sodipodi:nodetypes="sssssssss" />
    <path
       d="m 2.1166666,2.1166673 v -0.264584 c 0,-0.439738 0.3540125,-0.79375 0.79375,-0.79375 h 6.8791666 c 0.4397368,0 0.7937498,0.354012 0.7937498,0.79375 v 0.264584 c 0,-0.439739 -0.354013,-0.79375 -0.7937498,-0.79375 H 2.9104166 c -0.4397375,0 -0.79375,0.354011 -0.79375,0.79375 z"
       style="opacity:0.13;fill:#fcfeff;fill-opacity:1;stroke-width:0.227717"
       id="path845" />
    <path
       id="path880"
       style="opacity:0.08372486;fill:#000000;fill-opacity:1;stroke-width:0.860663"
       d="M 8 40 L 8 41 C 8 42.662002 9.338 44 11 44 L 37 44 C 38.661999 44 40 42.662002 40 41 L 40 40 C 40 41.662002 38.661997 43 37 43 L 11 43 C 9.338 43 8 41.662002 8 40 z "
       transform="scale(0.26458333)" />
    <rect
       y="6.0854168"
       x="4.2333336"
       height="0.79374999"
       width="4.2333331"
       id="rect844"
       style="opacity:0.445;fill:#000000;fill-opacity:1;stroke-width:4.23333;stroke-linecap:round" />
    <path
       id="path852"
       d="M 4.2333337,5.5562504 H 8.466667 L 6.3500003,2.9104171 Z"
       style="opacity:0.445;fill:#000000;fill-opacity:1;stroke:none;stroke-width:0.264583px;stroke-linecap:butt;stroke-linejoin:miter;stroke-opacity:1" />
  </g>
</svg>
