<?xml version="1.0" encoding="UTF-8" standalone="no"?>
<svg
   xmlns:dc="http://purl.org/dc/elements/1.1/"
   xmlns:cc="http://creativecommons.org/ns#"
   xmlns:rdf="http://www.w3.org/1999/02/22-rdf-syntax-ns#"
   xmlns:svg="http://www.w3.org/2000/svg"
   xmlns="http://www.w3.org/2000/svg"
   xmlns:sodipodi="http://sodipodi.sourceforge.net/DTD/sodipodi-0.dtd"
   xmlns:inkscape="http://www.inkscape.org/namespaces/inkscape"
   sodipodi:docname="application-x-shellscript.svg"
   inkscape:version="1.0 (4035a4fb49, 2020-05-01)"
   id="svg8"
   version="1.1"
   viewBox="0 0 4.2333333 4.2333333"
   height="16"
   width="16">
  <defs
     id="defs2">
    <clipPath
       clipPathUnits="userSpaceOnUse"
       id="clipPath859">
      <path
         id="path861"
         style="opacity:1;fill:#e1e2e3;fill-opacity:1;stroke-width:0.227717"
         d="m 2.9104167,1.0583333 c -0.4397376,0 -0.7937501,0.3540125 -0.7937501,0.79375 v 8.9958327 c 0,0.439738 0.3540125,0.79375 0.7937501,0.79375 h 6.8791666 c 0.4397377,0 0.7937497,-0.354012 0.7937497,-0.79375 V 4.2333333 l -3.1749997,-3.175 z" />
    </clipPath>
  </defs>
  <sodipodi:namedview
     inkscape:snap-bbox-midpoints="true"
     inkscape:snap-bbox-edge-midpoints="true"
     inkscape:snap-bbox="true"
     inkscape:snap-nodes="false"
     inkscape:snap-grids="true"
     inkscape:window-maximized="0"
     inkscape:window-y="32"
     inkscape:window-x="1443"
     inkscape:window-height="1003"
     inkscape:window-width="1117"
     units="px"
     showgrid="true"
     inkscape:document-rotation="0"
     inkscape:current-layer="layer1"
     inkscape:document-units="mm"
     inkscape:cy="12.667752"
     inkscape:cx="7.4225701"
     inkscape:zoom="20.584694"
     inkscape:pageshadow="2"
     inkscape:pageopacity="0.0"
     borderopacity="1.0"
     bordercolor="#666666"
     pagecolor="#ffffff"
     id="base"
     inkscape:snap-intersection-paths="true"
     inkscape:object-paths="true"
     inkscape:snap-smooth-nodes="true"
     inkscape:snap-page="true">
    <inkscape:grid
       empspacing="4"
       id="grid833"
       type="xygrid" />
  </sodipodi:namedview>
  <metadata
     id="metadata5">
    <rdf:RDF>
      <cc:Work
         rdf:about="">
        <dc:format>image/svg+xml</dc:format>
        <dc:type
           rdf:resource="http://purl.org/dc/dcmitype/StillImage" />
        <dc:title />
      </cc:Work>
    </rdf:RDF>
  </metadata>
  <g
     id="layer1"
     inkscape:groupmode="layer"
     inkscape:label="Layer 1">
    <path
       id="rect835"
       style="opacity:1;fill:#191b1c;fill-opacity:1;stroke-width:0.0759057"
       d="m 1.0583333,0.26458333 c -0.14657916,0 -0.2645833,0.1180042 -0.2645833,0.2645833 V 3.7041667 c 0,0.1465793 0.11800414,0.2645833 0.2645833,0.2645833 h 2.1166668 c 0.146579,0 0.2645832,-0.118004 0.2645832,-0.2645833 V 1.3229164 L 2.3812503,0.26458333 Z"
       sodipodi:nodetypes="ssssssccs" />
    <path
       id="rect866"
       clip-path="none"
       style="opacity:0.225914;fill:#000000;fill-opacity:1;stroke-width:0.0759057"
       d="M 2.38125,0.26458333 2.2930556,1.1465275 C 2.2784706,1.2923791 2.4117872,1.4256959 2.5576388,1.4111108 L 3.439583,1.3229158 Z"
       sodipodi:nodetypes="csscc" />
    <rect
       style="opacity:1;fill:#1f2021;fill-opacity:1;stroke-width:0.227717"
       id="rect838"
       width="6.3499999"
       height="5.2916665"
       x="7.4083333"
       y="-1.0583333"
       ry="0.79375005"
       clip-path="url(#clipPath859)"
       transform="matrix(0.33333326,0,0,0.33333326,-0.0881939,-0.0881945)" />
    <path
       id="path874"
       style="opacity:0.059;fill:#fcfeff;fill-opacity:1;stroke-width:0.0759057"
       d="m 1.0583333,0.26458333 c -0.1465791,0 -0.26458324,0.1180042 -0.26458324,0.2645833 v 0.088194 c 0,-0.1465791 0.11800414,-0.2645832 0.26458324,-0.2645832 l 1.3229167,9e-7 v -0.088195 z"
       sodipodi:nodetypes="sscsccs" />
    <path
       id="path880"
       style="opacity:0.192;fill:#000000;fill-opacity:1;stroke-width:0.0759057"
       d="m 0.79375006,3.6159727 v 0.088194 c 0,0.1465793 0.11800414,0.2645833 0.26458324,0.2645833 H 3.175 c 0.146579,0 0.2645832,-0.118004 0.2645832,-0.2645833 V 3.6159727 C 3.4395832,3.762552 3.3215788,3.880556 3.175,3.880556 H 1.0583333 c -0.1465791,0 -0.26458324,-0.118004 -0.26458324,-0.2645833 z"
       sodipodi:nodetypes="csssscssc" />
    <g
       transform="translate(0.09922062)"
       id="g855">
      <path
         sodipodi:nodetypes="ccccccc"
         style="fill:#e1e2e3;fill-opacity:1;stroke:none;stroke-width:0.192132px;stroke-linecap:butt;stroke-linejoin:miter;stroke-opacity:1"
         d="M 1.3229167,2.6458333 1.7197901,3.0427139 1.3229167,3.4395833 H 1.5874994 L 1.9843728,3.0427139 1.5874994,2.6458333 Z"
         id="path931"
         inkscape:connector-curvature="0" />
      <path
         sodipodi:nodetypes="ccccc"
         style="fill:#e1e2e3;fill-opacity:1;stroke:none;stroke-width:0.221656px;stroke-linecap:butt;stroke-linejoin:miter;stroke-opacity:1"
         d="M 2.1166651,3.2628909 V 3.4395833 H 2.7119754 V 3.2628909 Z"
         id="path924"
         inkscape:connector-curvature="0" />
    </g>
  </g>
</svg>
